<svg width="211" height="100" viewBox="0 0 211 100" fill="none" xmlns="http://www.w3.org/2000/svg">
<rect x="22" y="21" width="58" height="58" rx="4" fill="#D9D9D9"/>
<path d="M43 26C45.7614 26 48 28.2386 48 31V41C48 43.7614 45.7614 46 43 46H33C30.2386 46 28 43.7614 28 41H36C38.7614 41 41 38.7614 41 36V26H43Z" fill="#007AFF"/>
<rect x="53" y="26" width="20" height="20" rx="5" fill="#007AFF"/>
<rect x="53" y="51" width="20" height="20" rx="5" fill="#007AFF"/>
<rect x="28" y="51" width="20" height="20" rx="5" fill="#007AFF"/>
<path d="M99.5 58H94.1136V40.5455H99.7386C101.432 40.5455 102.881 40.8949 104.085 41.5938C105.29 42.2869 106.213 43.2841 106.855 44.5852C107.497 45.8807 107.818 47.4318 107.818 49.2386C107.818 51.0568 107.494 52.6222 106.847 53.9347C106.199 55.2415 105.256 56.2472 104.017 56.9517C102.778 57.6506 101.273 58 99.5 58ZM96.2273 56.125H99.3636C100.807 56.125 102.003 55.8466 102.952 55.2898C103.901 54.733 104.608 53.9403 105.074 52.9119C105.54 51.8835 105.773 50.6591 105.773 49.2386C105.773 47.8295 105.543 46.6165 105.082 45.5994C104.622 44.5767 103.935 43.7926 103.02 43.2472C102.105 42.696 100.966 42.4205 99.6023 42.4205H96.2273V56.125ZM116.58 58.2727C115.318 58.2727 114.23 57.9943 113.315 57.4375C112.406 56.875 111.705 56.0909 111.21 55.0852C110.722 54.0739 110.477 52.8977 110.477 51.5568C110.477 50.2159 110.722 49.0341 111.21 48.0114C111.705 46.983 112.392 46.1818 113.273 45.608C114.159 45.0284 115.193 44.7386 116.375 44.7386C117.057 44.7386 117.73 44.8523 118.395 45.0795C119.06 45.3068 119.665 45.6761 120.21 46.1875C120.756 46.6932 121.19 47.3636 121.514 48.1989C121.838 49.0341 122 50.0625 122 51.2841V52.1364H111.909V50.3977H119.955C119.955 49.6591 119.807 49 119.511 48.4205C119.222 47.8409 118.807 47.3835 118.267 47.0483C117.733 46.7131 117.102 46.5455 116.375 46.5455C115.574 46.5455 114.881 46.7443 114.295 47.142C113.716 47.5341 113.27 48.0455 112.957 48.6761C112.645 49.3068 112.489 49.983 112.489 50.7045V51.8636C112.489 52.8523 112.659 53.6903 113 54.3778C113.347 55.0597 113.827 55.5795 114.44 55.9375C115.054 56.2898 115.767 56.4659 116.58 56.4659C117.108 56.4659 117.585 56.392 118.011 56.2443C118.443 56.0909 118.815 55.8636 119.128 55.5625C119.44 55.2557 119.682 54.875 119.852 54.4205L121.795 54.9659C121.591 55.625 121.247 56.2045 120.764 56.7045C120.281 57.1989 119.685 57.5852 118.974 57.8636C118.264 58.1364 117.466 58.2727 116.58 58.2727ZM135.366 44.9091L130.525 58H128.479L123.638 44.9091H125.82L129.434 55.3409H129.57L133.184 44.9091H135.366ZM138.293 58V40.5455H144.191C145.555 40.5455 146.674 40.7784 147.549 41.2443C148.424 41.7045 149.072 42.3381 149.492 43.1449C149.913 43.9517 150.123 44.8693 150.123 45.8977C150.123 46.9261 149.913 47.8381 149.492 48.6335C149.072 49.429 148.427 50.054 147.558 50.5085C146.688 50.9574 145.577 51.1818 144.225 51.1818H139.452V49.2727H144.157C145.089 49.2727 145.839 49.1364 146.407 48.8636C146.981 48.5909 147.396 48.2045 147.651 47.7045C147.913 47.1989 148.043 46.5966 148.043 45.8977C148.043 45.1989 147.913 44.5881 147.651 44.0653C147.39 43.5426 146.972 43.1392 146.398 42.8551C145.825 42.5653 145.066 42.4205 144.123 42.4205H140.407V58H138.293ZM146.509 50.1591L150.805 58H148.35L144.123 50.1591H146.509ZM158.55 58.2727C157.368 58.2727 156.331 57.9915 155.439 57.429C154.553 56.8665 153.859 56.0795 153.359 55.0682C152.865 54.0568 152.618 52.875 152.618 51.5227C152.618 50.1591 152.865 48.9687 153.359 47.9517C153.859 46.9347 154.553 46.1449 155.439 45.5824C156.331 45.0199 157.368 44.7386 158.55 44.7386C159.732 44.7386 160.766 45.0199 161.652 45.5824C162.544 46.1449 163.237 46.9347 163.732 47.9517C164.232 48.9687 164.482 50.1591 164.482 51.5227C164.482 52.875 164.232 54.0568 163.732 55.0682C163.237 56.0795 162.544 56.8665 161.652 57.429C160.766 57.9915 159.732 58.2727 158.55 58.2727ZM158.55 56.4659C159.447 56.4659 160.186 56.2358 160.766 55.7756C161.345 55.3153 161.774 54.7102 162.053 53.9602C162.331 53.2102 162.47 52.3977 162.47 51.5227C162.47 50.6477 162.331 49.8324 162.053 49.0767C161.774 48.321 161.345 47.7102 160.766 47.2443C160.186 46.7784 159.447 46.5455 158.55 46.5455C157.652 46.5455 156.913 46.7784 156.334 47.2443C155.754 47.7102 155.325 48.321 155.047 49.0767C154.768 49.8324 154.629 50.6477 154.629 51.5227C154.629 52.3977 154.768 53.2102 155.047 53.9602C155.325 54.7102 155.754 55.3153 156.334 55.7756C156.913 56.2358 157.652 56.4659 158.55 56.4659ZM172.87 58.2727C171.688 58.2727 170.651 57.9915 169.759 57.429C168.873 56.8665 168.18 56.0795 167.68 55.0682C167.185 54.0568 166.938 52.875 166.938 51.5227C166.938 50.1591 167.185 48.9687 167.68 47.9517C168.18 46.9347 168.873 46.1449 169.759 45.5824C170.651 45.0199 171.688 44.7386 172.87 44.7386C174.052 44.7386 175.086 45.0199 175.972 45.5824C176.864 46.1449 177.558 46.9347 178.052 47.9517C178.552 48.9687 178.802 50.1591 178.802 51.5227C178.802 52.875 178.552 54.0568 178.052 55.0682C177.558 56.0795 176.864 56.8665 175.972 57.429C175.086 57.9915 174.052 58.2727 172.87 58.2727ZM172.87 56.4659C173.768 56.4659 174.506 56.2358 175.086 55.7756C175.665 55.3153 176.094 54.7102 176.373 53.9602C176.651 53.2102 176.79 52.3977 176.79 51.5227C176.79 50.6477 176.651 49.8324 176.373 49.0767C176.094 48.321 175.665 47.7102 175.086 47.2443C174.506 46.7784 173.768 46.5455 172.87 46.5455C171.972 46.5455 171.234 46.7784 170.654 47.2443C170.075 47.7102 169.646 48.321 169.367 49.0767C169.089 49.8324 168.95 50.6477 168.95 51.5227C168.95 52.3977 169.089 53.2102 169.367 53.9602C169.646 54.7102 170.075 55.3153 170.654 55.7756C171.234 56.2358 171.972 56.4659 172.87 56.4659ZM187.565 44.9091V46.6136H180.781V44.9091H187.565ZM182.759 41.7727H184.77V54.25C184.77 54.8182 184.852 55.2443 185.017 55.5284C185.188 55.8068 185.403 55.9943 185.665 56.0909C185.932 56.1818 186.213 56.2273 186.509 56.2273C186.73 56.2273 186.912 56.2159 187.054 56.1932C187.196 56.1648 187.31 56.142 187.395 56.125L187.804 57.9318C187.668 57.983 187.477 58.0341 187.233 58.0852C186.989 58.142 186.679 58.1705 186.304 58.1705C185.736 58.1705 185.179 58.0483 184.634 57.804C184.094 57.5597 183.645 57.1875 183.287 56.6875C182.935 56.1875 182.759 55.5568 182.759 54.7955V41.7727Z" fill="white"/>
</svg>
